<mxfile host="app.diagrams.net" modified="2024-05-18T07:24:49.658Z" agent="Mozilla/5.0 (Windows NT 10.0; Win64; x64) AppleWebKit/537.36 (KHTML, like Gecko) Chrome/124.0.0.0 Safari/537.36 Edg/124.0.0.0" etag="PvsbNxPohdEaPvNEg2dU" version="24.4.4" type="github">
  <diagram name="Page-1" id="e7e014a7-5840-1c2e-5031-d8a46d1fe8dd">
    <mxGraphModel dx="792" dy="468" grid="1" gridSize="10" guides="1" tooltips="1" connect="1" arrows="1" fold="1" page="1" pageScale="1" pageWidth="1169" pageHeight="826" background="none" math="0" shadow="0">
      <root>
        <mxCell id="0" />
        <mxCell id="1" parent="0" />
        <mxCell id="2" value="Pembeli" style="swimlane;whiteSpace=wrap" parent="1" vertex="1">
          <mxGeometry x="164.5" y="128" width="280" height="952" as="geometry" />
        </mxCell>
        <mxCell id="5" value="" style="ellipse;shape=startState;fillColor=#000000;strokeColor=#ff0000;" parent="2" vertex="1">
          <mxGeometry x="130" y="40" width="30" height="30" as="geometry" />
        </mxCell>
        <mxCell id="6" value="" style="edgeStyle=elbowEdgeStyle;elbow=horizontal;verticalAlign=bottom;endArrow=open;endSize=8;strokeColor=#FF0000;endFill=1;rounded=0" parent="2" source="5" target="7" edge="1">
          <mxGeometry x="100" y="40" as="geometry">
            <mxPoint x="115" y="110" as="targetPoint" />
          </mxGeometry>
        </mxCell>
        <mxCell id="7" value="Menghubungi Perusahaan" style="" parent="2" vertex="1">
          <mxGeometry x="60" y="110" width="170" height="50" as="geometry" />
        </mxCell>
        <mxCell id="8" value="Menghubungi melalui telepon, &#xa;email, atau formulir kontak di situs web" style="" parent="2" vertex="1">
          <mxGeometry x="30" y="192" width="230" height="50" as="geometry" />
        </mxCell>
        <mxCell id="9" value="" style="endArrow=open;strokeColor=#FF0000;endFill=1;rounded=0" parent="2" source="7" target="8" edge="1">
          <mxGeometry relative="1" as="geometry" />
        </mxCell>
        <mxCell id="10" value="Memilih untuk membeli hosting,&#xa;  domain, pembuatan website,&#xa;  atau kombinasi dari ketiganya" style="" parent="2" vertex="1">
          <mxGeometry x="45" y="272" width="200" height="50" as="geometry" />
        </mxCell>
        <mxCell id="VENFwPT8OEZ6iL2lPj8d-46" style="edgeStyle=orthogonalEdgeStyle;rounded=0;orthogonalLoop=1;jettySize=auto;html=1;exitX=0.5;exitY=1;exitDx=0;exitDy=0;entryX=0.5;entryY=0;entryDx=0;entryDy=0;fillColor=#f8cecc;strokeColor=#ff0800;" edge="1" parent="2" source="VENFwPT8OEZ6iL2lPj8d-43" target="VENFwPT8OEZ6iL2lPj8d-45">
          <mxGeometry relative="1" as="geometry" />
        </mxCell>
        <mxCell id="VENFwPT8OEZ6iL2lPj8d-43" value="Jika memilih pembuatan website custom, mengisi informasi seperti nama website dan desain yang diinginkan" style="rounded=0;whiteSpace=wrap;html=1;" vertex="1" parent="2">
          <mxGeometry x="50" y="352" width="190" height="60" as="geometry" />
        </mxCell>
        <mxCell id="20" value="" style="endArrow=open;strokeColor=#FF0000;endFill=1;rounded=0;entryX=0.5;entryY=0;entryDx=0;entryDy=0;" parent="2" source="10" target="VENFwPT8OEZ6iL2lPj8d-43" edge="1">
          <mxGeometry relative="1" as="geometry" />
        </mxCell>
        <mxCell id="VENFwPT8OEZ6iL2lPj8d-45" value="Mengisi formulir" style="rhombus;whiteSpace=wrap;html=1;fillColor=none;strokeColor=#ff0800;" vertex="1" parent="2">
          <mxGeometry x="82.5" y="452" width="125" height="80" as="geometry" />
        </mxCell>
        <mxCell id="VENFwPT8OEZ6iL2lPj8d-58" style="edgeStyle=orthogonalEdgeStyle;rounded=0;orthogonalLoop=1;jettySize=auto;html=1;exitX=0;exitY=0.5;exitDx=0;exitDy=0;entryX=0;entryY=0.5;entryDx=0;entryDy=0;strokeColor=#ff0000;" edge="1" parent="2" source="VENFwPT8OEZ6iL2lPj8d-51" target="VENFwPT8OEZ6iL2lPj8d-57">
          <mxGeometry relative="1" as="geometry" />
        </mxCell>
        <mxCell id="VENFwPT8OEZ6iL2lPj8d-51" value="Melihat website yang telah dibuat dan memberikan umpan balik" style="rounded=0;whiteSpace=wrap;html=1;" vertex="1" parent="2">
          <mxGeometry x="50" y="552" width="190" height="60" as="geometry" />
        </mxCell>
        <mxCell id="VENFwPT8OEZ6iL2lPj8d-57" value="Menyetujui rancangan" style="rounded=0;whiteSpace=wrap;html=1;" vertex="1" parent="2">
          <mxGeometry x="80" y="682" width="120" height="60" as="geometry" />
        </mxCell>
        <mxCell id="3" value="Pelayanan" style="swimlane;whiteSpace=wrap" parent="1" vertex="1">
          <mxGeometry x="444.5" y="128" width="285.5" height="952" as="geometry" />
        </mxCell>
        <mxCell id="15" value="Menerima panggilan atau pesan,&#xa;  memberikan informasi tentang produk&#xa; dan layanan yang ditawarkan" style="" parent="3" vertex="1">
          <mxGeometry x="20.5" y="192" width="240" height="50" as="geometry" />
        </mxCell>
        <mxCell id="16" value="Menawarkan paket hosting, domain,&#xa;  dan pembuatan website kepada pembeli" style="" parent="3" vertex="1">
          <mxGeometry x="14.5" y="272" width="251.75" height="50" as="geometry" />
        </mxCell>
        <mxCell id="17" value="" style="endArrow=open;strokeColor=#FF0000;endFill=1;rounded=0" parent="3" source="15" target="16" edge="1">
          <mxGeometry relative="1" as="geometry" />
        </mxCell>
        <mxCell id="VENFwPT8OEZ6iL2lPj8d-44" value="Bekerja sama dengan pembeli untuk memahami kebutuhan dan desain yang diinginkan" style="rounded=0;whiteSpace=wrap;html=1;" vertex="1" parent="3">
          <mxGeometry x="45.5" y="462" width="190" height="60" as="geometry" />
        </mxCell>
        <mxCell id="VENFwPT8OEZ6iL2lPj8d-59" value="Mengelola website setelah disetujui oleh pembeli, menangani pemeliharaan rutin dan menanggapi masalah yang mungkin terjadi" style="rounded=0;whiteSpace=wrap;html=1;" vertex="1" parent="3">
          <mxGeometry x="25.5" y="782" width="234.5" height="60" as="geometry" />
        </mxCell>
        <mxCell id="4" value="Developer" style="swimlane;whiteSpace=wrap" parent="1" vertex="1">
          <mxGeometry x="730" y="128" width="290" height="952" as="geometry" />
        </mxCell>
        <mxCell id="VENFwPT8OEZ6iL2lPj8d-49" value="Merancang dan mengembangkan website sesuai dengan spesifikasi yang diminta" style="rounded=0;whiteSpace=wrap;html=1;" vertex="1" parent="4">
          <mxGeometry x="40" y="462" width="200" height="60" as="geometry" />
        </mxCell>
        <mxCell id="VENFwPT8OEZ6iL2lPj8d-56" style="edgeStyle=orthogonalEdgeStyle;rounded=0;orthogonalLoop=1;jettySize=auto;html=1;exitX=1;exitY=0.5;exitDx=0;exitDy=0;entryX=1;entryY=0.5;entryDx=0;entryDy=0;strokeColor=#ff0000;" edge="1" parent="4" source="VENFwPT8OEZ6iL2lPj8d-53" target="VENFwPT8OEZ6iL2lPj8d-49">
          <mxGeometry relative="1" as="geometry" />
        </mxCell>
        <mxCell id="VENFwPT8OEZ6iL2lPj8d-53" value="Melakukan revisi atau perubahan sesuai dengan umpan balik pembeli" style="rounded=0;whiteSpace=wrap;html=1;" vertex="1" parent="4">
          <mxGeometry x="30" y="602" width="220" height="60" as="geometry" />
        </mxCell>
        <mxCell id="VENFwPT8OEZ6iL2lPj8d-41" style="edgeStyle=orthogonalEdgeStyle;rounded=0;orthogonalLoop=1;jettySize=auto;html=1;exitX=1;exitY=0.5;exitDx=0;exitDy=0;entryX=0;entryY=0.5;entryDx=0;entryDy=0;fillColor=#e51400;strokeColor=#ff0000;" edge="1" parent="1" source="8" target="15">
          <mxGeometry relative="1" as="geometry" />
        </mxCell>
        <mxCell id="VENFwPT8OEZ6iL2lPj8d-42" style="edgeStyle=orthogonalEdgeStyle;rounded=0;orthogonalLoop=1;jettySize=auto;html=1;entryX=1;entryY=0.5;entryDx=0;entryDy=0;fillColor=#f8cecc;strokeColor=#ff0800;" edge="1" parent="1" source="16" target="10">
          <mxGeometry relative="1" as="geometry" />
        </mxCell>
        <mxCell id="VENFwPT8OEZ6iL2lPj8d-48" style="edgeStyle=orthogonalEdgeStyle;rounded=0;orthogonalLoop=1;jettySize=auto;html=1;exitX=1;exitY=0.5;exitDx=0;exitDy=0;entryX=0;entryY=0.5;entryDx=0;entryDy=0;strokeColor=#ff0000;" edge="1" parent="1" source="VENFwPT8OEZ6iL2lPj8d-45" target="VENFwPT8OEZ6iL2lPj8d-44">
          <mxGeometry relative="1" as="geometry" />
        </mxCell>
        <mxCell id="VENFwPT8OEZ6iL2lPj8d-50" style="edgeStyle=orthogonalEdgeStyle;rounded=0;orthogonalLoop=1;jettySize=auto;html=1;exitX=1;exitY=0.5;exitDx=0;exitDy=0;entryX=0;entryY=0.5;entryDx=0;entryDy=0;strokeColor=#ff0000;" edge="1" parent="1" source="VENFwPT8OEZ6iL2lPj8d-44" target="VENFwPT8OEZ6iL2lPj8d-49">
          <mxGeometry relative="1" as="geometry" />
        </mxCell>
        <mxCell id="VENFwPT8OEZ6iL2lPj8d-52" style="edgeStyle=orthogonalEdgeStyle;rounded=0;orthogonalLoop=1;jettySize=auto;html=1;exitX=0.5;exitY=1;exitDx=0;exitDy=0;entryX=1;entryY=0.5;entryDx=0;entryDy=0;strokeColor=#ff0000;" edge="1" parent="1" source="VENFwPT8OEZ6iL2lPj8d-49" target="VENFwPT8OEZ6iL2lPj8d-51">
          <mxGeometry relative="1" as="geometry" />
        </mxCell>
        <mxCell id="VENFwPT8OEZ6iL2lPj8d-54" style="edgeStyle=orthogonalEdgeStyle;rounded=0;orthogonalLoop=1;jettySize=auto;html=1;exitX=0.5;exitY=1;exitDx=0;exitDy=0;entryX=0;entryY=0.5;entryDx=0;entryDy=0;strokeColor=#ff0000;" edge="1" parent="1" source="VENFwPT8OEZ6iL2lPj8d-51" target="VENFwPT8OEZ6iL2lPj8d-53">
          <mxGeometry relative="1" as="geometry" />
        </mxCell>
      </root>
    </mxGraphModel>
  </diagram>
</mxfile>
